<?xml version="1.0" standalone="no"?><!DOCTYPE svg PUBLIC "-//W3C//DTD SVG 1.1//EN" "http://www.w3.org/Graphics/SVG/1.1/DTD/svg11.dtd"><svg class="icon" width="32px" height="32.00px" viewBox="0 0 1024 1024" version="1.1" xmlns="http://www.w3.org/2000/svg"><path d="M0 0h1024v1024H0z" fill="#D9D9DB" /><path d="M678.4 435.2h-89.088A51.6864 51.6864 0 0 1 537.6 383.5392V294.4h-185.344c-3.584 0-6.656 3.0976-6.656 7.1168v420.9664c0 4.0192 3.072 7.1168 6.656 7.1168h319.488c3.584 0 6.656-3.0976 6.656-7.1168V435.2z m-102.4-134.912v83.2512c0 7.3216 5.9392 13.2608 13.312 13.2608h81.9456L576 300.288zM352.256 256h223.2832a25.6 25.6 0 0 1 18.2272 7.6032l115.6608 117.1968a25.6 25.6 0 0 1 7.3728 17.9712v323.712c0 25.1392-20.1728 45.5168-45.056 45.5168H352.256c-24.8832 0-45.056-20.3776-45.056-45.5168V301.5168c0-25.1392 20.1728-45.5168 45.056-45.5168z" fill="#FFFFFF" /></svg>