<?xml version="1.0" standalone="no"?><!DOCTYPE svg PUBLIC "-//W3C//DTD SVG 1.1//EN" "http://www.w3.org/Graphics/SVG/1.1/DTD/svg11.dtd"><svg class="icon" width="32px" height="32.00px" viewBox="0 0 1024 1024" version="1.1" xmlns="http://www.w3.org/2000/svg"><path d="M0 0h1024v1024H0z" fill="#E64545" /><path d="M235.8784 504.4736h18.6624c17.408 0 30.464-3.3024 39.1168-9.9072 8.6784-6.5792 13.0048-16.1792 13.0048-28.8 0-12.7232-3.6352-22.1184-10.88-28.1856-7.2704-6.0672-18.6368-9.1136-34.1248-9.1136H235.8784v76.0064z m128-40.6272c0 27.5456-8.96 48.64-26.9568 63.232-17.9968 14.592-43.5456 21.8624-76.7232 21.8624h-24.32V640H179.2V384h85.4016c32.4096 0 57.088 6.6816 73.9584 20.0448 16.896 13.3632 25.344 33.28 25.344 59.8016z m272.2816 45.696c0 42.1376-12.544 74.4192-37.5808 96.8448-25.0368 22.4-61.2352 33.6128-108.544 33.6128h-75.6736V384h83.9168c43.648 0 77.5424 11.008 101.6832 33.1008 24.1408 22.0672 36.1984 52.864 36.1984 92.4416z m-58.88 1.408c0-54.9888-25.344-82.4832-76.0576-82.4832H471.04v166.7072h24.32c54.6048 0 81.92-28.0832 81.92-84.224zM747.3408 640h-55.7824V384H844.8v44.4672h-97.4592v66.0224h90.7008v44.288h-90.7008V640z" fill="#FFFFFF" /></svg>