<?xml version="1.0" standalone="no"?><!DOCTYPE svg PUBLIC "-//W3C//DTD SVG 1.1//EN" "http://www.w3.org/Graphics/SVG/1.1/DTD/svg11.dtd"><svg class="icon" width="32px" height="32.00px" viewBox="0 0 1024 1024" version="1.1" xmlns="http://www.w3.org/2000/svg"><path d="M0 0h1024v1024H0z" fill="#E64D2E" /><path d="M665.6 438.784c0 45.44-14.5408 80.256-43.648 104.448-29.0816 24.2432-70.4768 36.352-124.2112 36.352h-44.2112V742.4H384V307.2h122.4704c53.1456 0 92.928 11.1104 119.424 33.3312C652.3648 362.7776 665.6 395.52 665.6 438.784z m-212.0704 80.9472h36.9408c35.6864 0 61.8752-6.3488 78.5408-19.0464 16.6912-12.6976 25.0368-32.5376 25.0368-59.52 0-25.0112-7.4752-43.6736-22.4-55.9616-14.9504-12.3136-38.2208-18.4576-69.8368-18.4576h-48.2816v152.9856z" fill="#FFFFFF" /></svg>