<?xml version="1.0" standalone="no"?><!DOCTYPE svg PUBLIC "-//W3C//DTD SVG 1.1//EN" "http://www.w3.org/Graphics/SVG/1.1/DTD/svg11.dtd"><svg class="icon" width="32px" height="32.00px" viewBox="0 0 1024 1024" version="1.1" xmlns="http://www.w3.org/2000/svg"><path d="M512 998.4c268.6208 0 486.4-217.7792 486.4-486.4S780.6208 25.6 512 25.6 25.6 243.3792 25.6 512s217.7792 486.4 486.4 486.4z" fill="#222222" fill-opacity=".5" /><path d="M512 998.4c268.6208 0 486.4-217.7792 486.4-486.4S780.6208 25.6 512 25.6 25.6 243.3792 25.6 512s217.7792 486.4 486.4 486.4z m0 25.6C229.2224 1024 0 794.7776 0 512S229.2224 0 512 0s512 229.2224 512 512-229.2224 512-512 512z" fill="#FFFFFF" /><path d="M444.416 313.4976l254.3616 165.1712a39.8592 39.8592 0 0 1 0 66.6624l-254.336 165.1712a38.9888 38.9888 0 0 1-54.2208-11.904 39.936 39.936 0 0 1-6.2208-21.4272V346.8288A39.424 39.424 0 0 1 423.2192 307.2c7.5264 0 14.8992 2.176 21.2224 6.2976z" fill="#FFFFFF" /></svg>