<?xml version="1.0" standalone="no"?><!DOCTYPE svg PUBLIC "-//W3C//DTD SVG 1.1//EN" "http://www.w3.org/Graphics/SVG/1.1/DTD/svg11.dtd"><svg class="icon" width="32px" height="32.00px" viewBox="0 0 1024 1024" version="1.1" xmlns="http://www.w3.org/2000/svg"><path d="M0 0h1024v1024H0z" fill="#3078F2" /><path d="M665.9328 716.8H596.224l-66.432-244.3008a979.712 979.712 0 0 1-10.7264-46.08c-4.2752-20.096-6.8608-34.048-7.7568-41.8816-1.792 11.9296-4.6848 27.4432-8.704 46.4896a669.7472 669.7472 0 0 1-10.0608 42.5984L427.776 716.8h-69.6832l-50.6368-205.056L256 307.2h65.3824l55.9872 238.6944c8.7552 38.2976 15.0016 72.0896 18.7648 101.4272 1.9456-15.872 4.8896-33.6128 8.832-53.248 3.9168-19.6096 7.5008-35.4816 10.7264-47.616L479.4368 307.2h63.488l65.3824 240.384c6.272 22.2208 12.8768 55.4752 19.84 99.7376 2.688-26.7008 9.1136-60.6976 19.2768-101.9904L703.1552 307.2H768l-102.0672 409.6z" fill="#FFFFFF" /></svg>