<?xml version="1.0" standalone="no"?><!DOCTYPE svg PUBLIC "-//W3C//DTD SVG 1.1//EN" "http://www.w3.org/Graphics/SVG/1.1/DTD/svg11.dtd"><svg class="icon" width="32px" height="32.00px" viewBox="0 0 1024 1024" version="1.1" xmlns="http://www.w3.org/2000/svg"><path fill="#253047" d="M628.736 76.48a48.256 48.256 0 0 1 2.176-1.664c20.864-15.68 52.928-14.08 71.552 3.456 10.88 10.368 19.712 19.072 26.304 26.112 227.072 243.008 222.912 589.12-12.608 828.288a512 512 0 0 1-15.36 14.72 57.984 57.984 0 0 1-72.064 0c-20.48-17.28-21.568-44.992-2.368-63.36 4.096-3.84 7.616-7.36 10.56-10.368 200.704-206.08 204.352-502.464 11.008-711.808a511.104 511.104 0 0 0-21.632-21.76c-19.2-18.368-18.176-46.272 2.432-63.616zM427.52 245.824a48 48 0 0 1 3.392-2.56c21.248-14.848 52.8-12.416 70.4 5.44 3.2 3.2 5.952 6.144 8.32 8.704 136.128 150.464 135.68 360.512-1.344 510.528a270.144 270.144 0 0 1-6.848 7.232 45.824 45.824 0 0 1-3.2 2.944 56.96 56.96 0 0 1-70.72 0c-20.352-17.152-22.144-44.416-4.16-63.36 2.304-2.368 4.288-4.48 6.016-6.528 101.76-116.416 101.76-276.096 0-392.512a207.488 207.488 0 0 0-6.016-6.528c-17.984-18.944-16.192-46.208 4.16-63.36zM272.832 615.68a27.776 27.776 0 0 1-36.352 1.792l-96.576-81.28a30.528 30.528 0 0 1 0-48.384L236.16 406.848a27.584 27.584 0 0 1 36.416 1.792c6.144 6.592 10.88 12.16 14.08 16.704 40.448 57.984 36.928 131.648-10.624 186.88-0.896 1.024-1.92 2.176-3.136 3.392z"  /></svg>