<?xml version="1.0" standalone="no"?><!DOCTYPE svg PUBLIC "-//W3C//DTD SVG 1.1//EN" "http://www.w3.org/Graphics/SVG/1.1/DTD/svg11.dtd"><svg class="icon" width="32px" height="32.00px" viewBox="0 0 1024 1024" version="1.1" xmlns="http://www.w3.org/2000/svg"><path fill="#253047" d="M395.264 76.48c20.608 17.344 21.696 45.248 2.432 63.68a511.104 511.104 0 0 0-21.632 21.696c-193.344 209.28-189.696 505.792 11.008 711.808 2.944 3.008 6.464 6.528 10.56 10.432 19.2 18.304 18.176 46.08-2.368 63.36a57.984 57.984 0 0 1-74.048-1.792 512 512 0 0 1-13.44-12.992C72.32 693.504 68.224 347.392 295.296 104.32c6.592-7.04 15.36-15.744 26.304-26.112 18.624-17.6 50.688-19.2 71.552-3.456a48.256 48.256 0 0 1 2.176 1.664zM596.48 245.824c20.352 17.152 22.144 44.416 4.16 63.36a207.488 207.488 0 0 0-6.016 6.528c-101.76 116.48-101.76 276.096 0 392.512 1.728 1.984 3.712 4.16 6.016 6.528 17.984 18.944 16.192 46.208-4.16 63.36a56.96 56.96 0 0 1-70.72 0 45.824 45.824 0 0 1-3.2-2.944 270.144 270.144 0 0 1-6.848-7.232c-137.024-150.016-137.472-360.064-1.28-510.528 2.304-2.56 5.12-5.504 8.256-8.704 17.6-17.92 49.152-20.288 70.4-5.504a48 48 0 0 1 3.392 2.624z m154.624 369.792a105.792 105.792 0 0 1-3.136-3.392c-47.552-55.232-51.072-128.896-10.56-186.88 3.2-4.544 7.872-10.112 14.08-16.704a27.584 27.584 0 0 1 36.352-1.792l96.192 80.896a30.528 30.528 0 0 1 0 48.448l-96.64 81.216a27.776 27.776 0 0 1-36.288-1.792z"  /></svg>